HIERARCHY
ROOT Hips
{
	OFFSET 0.000000 97.167313 0.000000
	CHANNELS 6 Xposition Yposition Zposition Xrotation Yrotation Zrotation
	JOINT Spine
	{
		OFFSET 0.000000 13.784798 0.064400
		CHANNELS 3 Xrotation Yrotation Zrotation
		JOINT Spine1
		{
			OFFSET 0.000000 12.037903 0.404700
			CHANNELS 3 Xrotation Yrotation Zrotation
			JOINT Spine2
			{
				OFFSET 0.000000 17.795601 0.420200
				CHANNELS 3 Xrotation Yrotation Zrotation
				JOINT Neck
				{
					OFFSET 0.000000 39.131302 11.954600
					CHANNELS 3 Xrotation Yrotation Zrotation
					JOINT Head
					{
						OFFSET 0.000000 14.456192 15.627699
						CHANNELS 3 Xrotation Yrotation Zrotation
						JOINT HeadTop_End
						{
							OFFSET 0.000000 15.703506 7.603401
							CHANNELS 3 Xrotation Yrotation Zrotation
							End Site
							{
								OFFSET 0.000000 17.447403 0.000000
							}
						}
					}
				}
				JOINT LeftShoulder
				{
					OFFSET 17.399500 24.608795 1.168800
					CHANNELS 3 Xrotation Yrotation Zrotation
					JOINT LeftArm
					{
						OFFSET 18.980635 5.765305 1.818600
						CHANNELS 3 Xrotation Yrotation Zrotation
						JOINT LeftForeArm
						{
							OFFSET 49.290169 0.000000 0.000000
							CHANNELS 3 Xrotation Yrotation Zrotation
							JOINT LeftHand
							{
								OFFSET 31.562012 0.000000 0.000000
								CHANNELS 3 Xrotation Yrotation Zrotation
								JOINT LeftHandThumb1
								{
									OFFSET 6.133995 -4.388519 7.076070
									CHANNELS 3 Xrotation Yrotation Zrotation
									JOINT LeftHandThumb2
									{
										OFFSET 6.037666 -3.485840 3.485847
										CHANNELS 3 Xrotation Yrotation Zrotation
										JOINT LeftHandThumb3
										{
											OFFSET 6.496506 -3.750763 3.750761
											CHANNELS 3 Xrotation Yrotation Zrotation
											JOINT LeftHandThumb4
											{
												OFFSET 5.616882 -3.242905 3.242910
												CHANNELS 3 Xrotation Yrotation Zrotation
												End Site
												{
													OFFSET -1.254608 7.132141 0.375429
												}
											}
										}
									}
								}
								JOINT LeftHandPinky1
								{
									OFFSET 18.920792 -0.453171 -11.426712
									CHANNELS 3 Xrotation Yrotation Zrotation
									JOINT LeftHandPinky2
									{
										OFFSET 4.919586 0.000000 0.000000
										CHANNELS 3 Xrotation Yrotation Zrotation
										JOINT LeftHandPinky3
										{
											OFFSET 5.233047 0.000000 0.000000
											CHANNELS 3 Xrotation Yrotation Zrotation
											JOINT LeftHandPinky4
											{
												OFFSET 5.571716 0.000000 0.000000
												CHANNELS 3 Xrotation Yrotation Zrotation
												End Site
												{
													OFFSET -3.459808 4.342407 -0.466164
												}
											}
										}
									}
								}
								JOINT LeftHandRing1
								{
									OFFSET 22.726120 -0.094986 -6.500475
									CHANNELS 3 Xrotation Yrotation Zrotation
									JOINT LeftHandRing2
									{
										OFFSET 6.408615 0.000000 0.000000
										CHANNELS 3 Xrotation Yrotation Zrotation
										JOINT LeftHandRing3
										{
											OFFSET 6.150223 0.000000 0.000000
											CHANNELS 3 Xrotation Yrotation Zrotation
											JOINT LeftHandRing4
											{
												OFFSET 6.145386 0.000000 0.000000
												CHANNELS 3 Xrotation Yrotation Zrotation
												End Site
												{
													OFFSET -3.671402 4.923981 -0.202372
												}
											}
										}
									}
								}
								JOINT LeftHandMiddle1
								{
									OFFSET 23.373947 0.000000 0.000001
									CHANNELS 3 Xrotation Yrotation Zrotation
									JOINT LeftHandMiddle2
									{
										OFFSET 6.996567 0.000000 0.000000
										CHANNELS 3 Xrotation Yrotation Zrotation
										JOINT LeftHandMiddle3
										{
											OFFSET 7.015945 0.000000 0.000000
											CHANNELS 3 Xrotation Yrotation Zrotation
											JOINT LeftHandMiddle4
											{
												OFFSET 7.721573 0.000000 0.000000
												CHANNELS 3 Xrotation Yrotation Zrotation
												End Site
												{
													OFFSET -4.651108 6.158463 0.251582
												}
											}
										}
									}
								}
								JOINT LeftHandIndex1
								{
									OFFSET 21.310577 -0.490082 6.209344
									CHANNELS 3 Xrotation Yrotation Zrotation
									JOINT LeftHandIndex2
									{
										OFFSET 7.536453 0.000000 0.000000
										CHANNELS 3 Xrotation Yrotation Zrotation
										JOINT LeftHandIndex3
										{
											OFFSET 7.512344 0.000000 0.000000
											CHANNELS 3 Xrotation Yrotation Zrotation
											JOINT LeftHandIndex4
											{
												OFFSET 10.212402 0.000000 0.000001
												CHANNELS 3 Xrotation Yrotation Zrotation
												End Site
												{
													OFFSET -5.180801 8.690506 1.388433
												}
											}
										}
									}
								}
							}
						}
					}
				}
				JOINT RightShoulder
				{
					OFFSET -17.399500 24.608795 1.168800
					CHANNELS 3 Xrotation Yrotation Zrotation
					JOINT RightArm
					{
						OFFSET -18.980635 5.765305 1.818600
						CHANNELS 3 Xrotation Yrotation Zrotation
						JOINT RightForeArm
						{
							OFFSET -49.290169 0.000000 0.000000
							CHANNELS 3 Xrotation Yrotation Zrotation
							JOINT RightHand
							{
								OFFSET -31.562012 0.000000 0.000000
								CHANNELS 3 Xrotation Yrotation Zrotation
								JOINT RightHandThumb1
								{
									OFFSET -6.133995 -4.388519 7.076070
									CHANNELS 3 Xrotation Yrotation Zrotation
									JOINT RightHandThumb2
									{
										OFFSET -6.037666 -3.485840 3.485847
										CHANNELS 3 Xrotation Yrotation Zrotation
										JOINT RightHandThumb3
										{
											OFFSET -6.496506 -3.750763 3.750761
											CHANNELS 3 Xrotation Yrotation Zrotation
											JOINT RightHandThumb4
											{
												OFFSET -5.616882 -3.242905 3.242910
												CHANNELS 3 Xrotation Yrotation Zrotation
												End Site
												{
													OFFSET 1.254608 7.132141 0.375429
												}
											}
										}
									}
								}
								JOINT RightHandIndex1
								{
									OFFSET -21.310577 -0.490082 6.209344
									CHANNELS 3 Xrotation Yrotation Zrotation
									JOINT RightHandIndex2
									{
										OFFSET -7.536453 0.000000 0.000000
										CHANNELS 3 Xrotation Yrotation Zrotation
										JOINT RightHandIndex3
										{
											OFFSET -7.512344 0.000000 0.000000
											CHANNELS 3 Xrotation Yrotation Zrotation
											JOINT RightHandIndex4
											{
												OFFSET -10.212402 0.000000 0.000001
												CHANNELS 3 Xrotation Yrotation Zrotation
												End Site
												{
													OFFSET 5.180801 8.690506 1.388433
												}
											}
										}
									}
								}
								JOINT RightHandMiddle1
								{
									OFFSET -23.373947 0.000000 0.000001
									CHANNELS 3 Xrotation Yrotation Zrotation
									JOINT RightHandMiddle2
									{
										OFFSET -6.996567 0.000000 0.000000
										CHANNELS 3 Xrotation Yrotation Zrotation
										JOINT RightHandMiddle3
										{
											OFFSET -7.015945 0.000000 0.000000
											CHANNELS 3 Xrotation Yrotation Zrotation
											JOINT RightHandMiddle4
											{
												OFFSET -7.721573 0.000000 0.000000
												CHANNELS 3 Xrotation Yrotation Zrotation
												End Site
												{
													OFFSET 4.651108 6.158463 0.251582
												}
											}
										}
									}
								}
								JOINT RightHandRing1
								{
									OFFSET -22.726120 -0.094986 -6.500475
									CHANNELS 3 Xrotation Yrotation Zrotation
									JOINT RightHandRing2
									{
										OFFSET -6.408615 0.000000 0.000000
										CHANNELS 3 Xrotation Yrotation Zrotation
										JOINT RightHandRing3
										{
											OFFSET -6.150223 0.000000 0.000000
											CHANNELS 3 Xrotation Yrotation Zrotation
											JOINT RightHandRing4
											{
												OFFSET -6.145386 0.000000 0.000000
												CHANNELS 3 Xrotation Yrotation Zrotation
												End Site
												{
													OFFSET 3.671402 4.923981 -0.202372
												}
											}
										}
									}
								}
								JOINT RightHandPinky1
								{
									OFFSET -18.920792 -0.453171 -11.426712
									CHANNELS 3 Xrotation Yrotation Zrotation
									JOINT RightHandPinky2
									{
										OFFSET -4.919586 0.000000 0.000000
										CHANNELS 3 Xrotation Yrotation Zrotation
										JOINT RightHandPinky3
										{
											OFFSET -5.233047 0.000000 0.000000
											CHANNELS 3 Xrotation Yrotation Zrotation
											JOINT RightHandPinky4
											{
												OFFSET -5.571716 0.000000 0.000000
												CHANNELS 3 Xrotation Yrotation Zrotation
												End Site
												{
													OFFSET 3.459808 4.342407 -0.466164
												}
											}
										}
									}
								}
							}
						}
					}
				}
			}
		}
	}
	JOINT LeftUpLeg
	{
		OFFSET 19.899099 -7.885101 -3.429500
		CHANNELS 3 Xrotation Yrotation Zrotation
		JOINT LeftLeg
		{
			OFFSET 1.745560 -36.997807 10.304700
			CHANNELS 3 Xrotation Yrotation Zrotation
			JOINT LeftFoot
			{
				OFFSET -1.745558 -29.803308 -13.615400
				CHANNELS 3 Xrotation Yrotation Zrotation
				JOINT LeftToeBase
				{
					OFFSET 1.181900 -18.539904 15.226099
					CHANNELS 3 Xrotation Yrotation Zrotation
					JOINT LeftToe_End
					{
						OFFSET -0.863701 1.402801 16.534700
						CHANNELS 3 Xrotation Yrotation Zrotation
						End Site
						{
							OFFSET 0.000000 16.616566 0.000000
						}
					}
				}
			}
		}
	}
	JOINT RightUpLeg
	{
		OFFSET -19.899099 -7.885101 -3.429500
		CHANNELS 3 Xrotation Yrotation Zrotation
		JOINT RightLeg
		{
			OFFSET -1.745560 -36.997807 10.304700
			CHANNELS 3 Xrotation Yrotation Zrotation
			JOINT RightFoot
			{
				OFFSET 1.745558 -29.803308 -13.615400
				CHANNELS 3 Xrotation Yrotation Zrotation
				JOINT RightToeBase
				{
					OFFSET -1.181900 -18.539904 15.226099
					CHANNELS 3 Xrotation Yrotation Zrotation
					JOINT RightToe_End
					{
						OFFSET 0.863701 1.402801 16.534700
						CHANNELS 3 Xrotation Yrotation Zrotation
						End Site
						{
							OFFSET 0.000000 16.616566 0.000000
						}
					}
				}
			}
		}
	}
}
MOTION
Frames: 5
Frame Time: 0.033333
-2.872560 92.466141 0.212959 -9.319596 -4.429786 9.083166 2.728031 1.514175 -5.576197 5.277334 1.918556 -3.357453 5.295133 1.875896 -3.355093 8.251689 3.050028 -10.833014 -12.661815 2.446834 -7.051346 -0.000000 -0.000001 0.000004 3.157022 -6.451547 -11.075426 11.059413 3.140267 -43.459001 -44.734348 -63.701711 -40.010493 -7.897615 0.301818 -6.164315 -33.605931 14.895693 -8.211869 4.427580 17.778988 8.741103 0.000013 0.000002 0.000005 -0.000000 -0.000002 -0.000003 -13.578871 9.799422 -26.940062 1.308681 1.777991 -19.593345 -0.000001 0.000001 -0.000000 0.000000 0.000000 -0.000002 -10.604793 7.220297 -17.698540 2.812089 6.140937 -28.996940 0.000000 -0.000005 0.000019 -0.000000 0.000002 0.000007 -5.857175 5.000677 -5.781147 2.846604 6.227323 -30.275749 -0.000011 -0.000002 0.000011 -0.000001 0.000001 0.000004 -1.927111 6.911777 -0.149727 1.928730 6.090868 -23.963065 0.000004 -0.000008 -0.000013 -0.000001 -0.000002 0.000001 3.095536 5.381076 5.939191 -4.178450 -8.949611 57.997418 -68.575004 72.558206 69.221474 -6.635231 -0.733804 19.289028 -21.992010 -17.035494 2.009232 5.703668 -22.367051 -5.520840 -0.000010 0.000005 -0.000003 -0.000001 0.000004 0.000001 -3.756717 -6.485152 8.034494 1.843119 -4.670029 15.327349 -0.000009 0.000010 -0.000004 0.000001 -0.000001 0.000001 -8.983067 -7.076425 9.538900 3.073617 -5.311731 25.784140 0.000016 -0.000004 -0.000009 0.000003 0.000001 -0.000006 -15.309096 -11.019247 21.386828 2.971581 -4.940267 22.555655 0.000002 -0.000001 0.000007 -0.000001 -0.000001 -0.000002 -13.354599 -11.780984 32.894382 1.185740 -0.076870 8.868741 0.000005 -0.000001 0.000000 -0.000000 -0.000001 0.000004 11.482908 15.489307 -13.688216 6.410707 0.148104 -0.205755 -6.451599 -2.494872 3.971618 -0.000000 -0.000002 -0.000001 -0.000000 0.000000 0.000000 -5.508257 -15.292305 -26.373698 26.120998 2.096333 1.096912 -12.456297 -11.095229 9.081742 -0.000184 0.000007 0.000473 -0.000000 -0.000001 0.000000 
-2.925076 92.453003 0.225777 -9.284478 -4.103599 9.167256 2.710681 1.542530 -5.603337 5.293235 2.077443 -3.526799 5.316094 2.034495 -3.519055 6.335801 2.466983 -8.341084 -10.664012 1.877218 -5.740139 -0.000000 -0.000001 0.000003 3.379145 -7.383712 -12.425809 16.614240 -1.668186 -38.856857 -29.118135 -62.811991 -25.269719 -8.072655 -0.894691 -5.257988 -29.183219 15.550024 -5.524649 4.920252 19.565514 7.486064 0.000013 0.000001 0.000003 0.000000 0.000001 -0.000001 -16.821069 9.906464 -28.828743 1.537795 2.072201 -21.460101 -0.000004 0.000007 0.000007 0.000001 -0.000001 -0.000006 -12.842219 7.678170 -19.247191 3.312593 6.480308 -32.037750 -0.000000 -0.000003 0.000010 -0.000001 0.000001 0.000005 -7.112609 5.764448 -7.277909 3.394432 6.635455 -33.969317 -0.000008 -0.000002 0.000009 0.000000 -0.000003 0.000004 -2.475231 9.197429 -2.918731 2.239225 6.389194 -26.265960 0.000006 -0.000004 -0.000015 0.000000 0.000001 0.000001 3.355368 6.200448 5.817471 -0.868339 -7.083678 58.668395 -39.710740 70.335772 39.736483 -6.468259 -1.275650 17.068723 -21.991981 -17.035486 2.009219 5.703659 -22.367063 -5.520838 -0.000009 0.000006 -0.000002 0.000001 0.000001 -0.000000 -3.581374 -7.730783 7.867592 1.950065 -5.030070 17.662996 -0.000009 0.000013 -0.000001 -0.000001 0.000002 -0.000001 -8.983054 -7.076414 9.538886 3.266482 -5.686894 28.426680 0.000014 -0.000004 -0.000005 -0.000001 -0.000002 -0.000009 -15.461682 -10.636930 21.422858 3.135444 -5.310264 25.053332 -0.000003 -0.000001 0.000001 -0.000003 0.000000 -0.000005 -15.295018 -11.732242 32.573599 1.236900 -0.373438 10.699630 0.000003 -0.000004 0.000002 0.000002 -0.000003 -0.000003 11.288814 15.281375 -13.641151 6.470296 0.150922 -0.204286 -6.379328 -2.586741 3.934793 -0.000000 -0.000002 -0.000001 0.000000 0.000000 0.000000 -5.482629 -15.551980 -26.415318 26.170905 2.111702 1.104109 -12.616091 -11.213886 9.054857 -0.000184 0.000005 0.000473 -0.000000 0.000000 0.000000 
-2.961594 92.478271 0.260916 -9.209993 -3.716654 8.979897 2.664801 1.507508 -5.532620 5.213906 2.125323 -3.502483 5.242524 2.082588 -3.488298 4.656563 2.021107 -6.641993 -8.493398 1.088586 -4.091495 0.000000 0.000000 -0.000000 3.528172 -8.469166 -12.962070 21.267737 -5.415215 -36.055093 -16.101037 -58.747953 -14.804643 -8.151446 -1.861732 -4.029707 -25.476122 16.260304 -3.583942 5.326263 21.023937 6.462329 0.000014 0.000002 0.000003 -0.000000 0.000001 0.000000 -19.434791 10.176839 -30.402818 1.730030 2.301750 -22.971733 0.000001 -0.000001 0.000001 0.000000 -0.000001 -0.000002 -14.635010 8.145789 -20.494647 3.726007 6.726273 -34.502349 -0.000000 -0.000004 0.000017 0.000000 0.000001 0.000003 -8.101510 6.431011 -8.468481 3.850574 6.929564 -36.963280 -0.000009 -0.000002 0.000009 -0.000005 0.000001 0.000007 -2.762062 11.073485 -5.162489 2.497714 6.617016 -28.131550 0.000003 -0.000002 -0.000018 -0.000003 0.000003 0.000002 3.516914 6.814865 6.532572 1.941743 -4.270512 57.793659 -23.545774 62.744112 24.025277 -6.289966 -2.395423 12.603885 -21.991971 -17.035472 2.009225 5.703649 -22.367044 -5.520815 -0.000010 0.000003 -0.000002 -0.000000 -0.000001 0.000001 -3.408567 -8.981289 7.703431 2.090037 -5.435077 20.329758 -0.000011 0.000012 -0.000003 -0.000002 0.000000 -0.000003 -8.983058 -7.076411 9.538894 3.482427 -6.062247 31.141906 0.000011 -0.000008 -0.000009 -0.000000 -0.000001 -0.000004 -15.635903 -10.200663 21.465239 3.329984 -5.700319 27.745847 -0.000001 0.000000 0.000008 0.000000 0.000000 -0.000002 -17.077232 -11.564271 32.317071 1.325362 -0.789576 13.288757 0.000012 -0.000001 0.000007 -0.000000 -0.000000 0.000006 10.811447 14.862738 -13.287564 6.782289 0.152303 -0.195650 -6.460073 -2.436830 3.911672 -0.000000 -0.000002 -0.000001 -0.000000 0.000001 0.000000 -5.207196 -15.867445 -26.029443 25.863297 2.106435 1.101426 -12.610010 -11.451955 8.988540 -0.000184 0.000005 0.000473 -0.000000 -0.000003 0.000000 
-2.979057 92.518326 0.305891 -9.070034 -3.288983 8.590799 2.593947 1.441595 -5.391520 5.027221 2.009333 -3.307098 5.054746 1.967060 -3.293841 3.158779 1.624254 -5.499167 -6.423850 0.464083 -2.593088 0.000000 0.000000 0.000000 3.567699 -9.982805 -13.021066 24.113706 -8.027328 -35.494857 -5.925640 -52.853790 -8.870898 -8.181727 -2.446626 -2.501458 -22.932307 16.817585 -2.410353 5.602318 22.006557 5.772588 0.000010 0.000000 0.000005 0.000001 -0.000000 -0.000002 -21.175936 10.451168 -31.473638 1.862007 2.451082 -23.984308 0.000002 0.000002 0.000001 0.000003 -0.000003 -0.000006 -15.825033 8.507032 -21.324920 4.006264 6.876550 -36.154104 -0.000007 -0.000004 0.000015 -0.000000 -0.000000 0.000002 -8.749536 6.900825 -9.254855 4.161206 7.108221 -38.969962 -0.000011 -0.000000 0.000011 0.000002 0.000000 0.000004 -2.874310 12.338168 -6.670271 2.674101 6.762635 -29.381514 0.000002 -0.000001 -0.000010 0.000001 0.000003 0.000002 3.670874 7.218409 7.466077 4.005583 -0.835631 56.291827 -13.822276 53.231353 16.334502 -6.620044 -2.973552 8.664836 -21.991981 -17.035472 2.009242 5.703673 -22.367054 -5.520818 -0.000010 0.000005 -0.000002 -0.000000 -0.000001 0.000001 -3.247769 -10.165197 7.551046 2.253803 -5.844651 23.077536 -0.000012 0.000010 -0.000004 0.000001 -0.000003 -0.000004 -8.983072 -7.076429 9.538903 3.706901 -6.413249 33.756140 0.000015 -0.000008 -0.000010 -0.000000 0.000001 -0.000004 -15.815363 -9.751676 21.510180 3.541360 -6.078298 30.423483 0.000006 0.000003 0.000003 -0.000002 -0.000001 -0.000007 -18.648244 -11.324682 32.126519 1.449791 -1.261170 16.257976 0.000006 -0.000001 0.000006 0.000002 -0.000000 0.000002 10.096233 14.398001 -12.709682 7.326514 0.152477 -0.180965 -6.671514 -2.212484 3.894638 -0.000000 -0.000003 -0.000001 0.000000 -0.000000 -0.000000 -4.820508 -16.230298 -25.346323 25.320963 2.088224 1.092411 -12.480604 -11.739479 8.896087 -0.000184 0.000004 0.000473 -0.000000 -0.000001 -0.000000 
-2.988704 92.546661 0.356668 -8.874991 -2.923983 8.158491 2.494326 1.344498 -5.219501 4.810217 1.788586 -3.072091 4.831758 1.749357 -3.063776 1.686152 1.262461 -4.551587 -4.637425 0.074834 -1.582872 0.000000 0.000000 -0.000000 3.438997 -11.843347 -12.624743 24.393483 -9.746595 -37.090622 2.280751 -45.840149 -6.892152 -8.202108 -2.652079 -0.384399 -21.992154 17.035887 -2.008529 5.703928 22.366213 5.520050 0.000014 0.000000 0.000001 -0.000000 -0.000003 -0.000004 -21.808811 10.569977 -31.866903 1.910791 2.504669 -24.353757 -0.000000 -0.000004 -0.000001 -0.000000 0.000001 -0.000000 -16.256880 8.648363 -21.626568 4.109035 6.928472 -36.756960 0.000000 -0.000003 0.000012 -0.000001 0.000001 0.000009 -8.983043 7.076805 -9.539540 4.275444 7.169707 -39.702384 -0.000016 -0.000006 0.000016 0.000001 -0.000001 0.000004 -2.899139 12.800593 -7.221972 2.739074 6.814389 -29.837623 0.000000 -0.000003 -0.000011 0.000000 0.000001 0.000001 3.796599 8.029403 8.077482 4.831049 2.024750 55.422836 -4.880875 43.056273 11.863476 -7.064555 -2.473350 6.391310 -21.991985 -17.035477 2.009238 5.703662 -22.367051 -5.520826 -0.000012 0.000004 -0.000004 -0.000000 -0.000002 -0.000000 -3.107980 -11.210827 7.418831 2.425160 -6.220923 25.654986 -0.000009 0.000010 -0.000008 0.000001 -0.000001 -0.000001 -8.983070 -7.076413 9.538909 3.921066 -6.718004 36.094917 0.000012 -0.000005 -0.000014 -0.000001 -0.000000 -0.000006 -15.983647 -9.331046 21.553555 3.750185 -6.415075 32.875401 -0.000001 0.000001 0.000010 -0.000000 0.000002 -0.000003 -19.956787 -11.060176 31.996813 1.598517 -1.725684 19.228820 0.000006 -0.000003 0.000007 0.000001 -0.000000 0.000006 9.329387 13.997446 -12.106352 7.939829 0.150963 -0.165765 -6.944952 -1.983667 3.877677 -0.000000 -0.000002 -0.000001 0.000000 0.000001 0.000000 -4.549370 -16.652431 -24.666487 24.774976 2.069438 1.083077 -12.319485 -11.865879 8.804535 -0.000184 0.000007 0.000473 -0.000000 -0.000004 0.000000 
